<?xml version="1.0" encoding="UTF-8"?>
<svg version="1.1" viewBox="0 0 2048 1024" width="1280" height="1280" xmlns="http://www.w3.org/2000/svg">
<path transform="translate(295,105)" d="m0 0h292l21 3 21 7 21 11 12 9 14 13 9 11 10 15 8 17 5 16 3 14v37l-4 20-7 19-9 17-9 12-9 10-8 8-15 11-14 8-14 6-4 1-5 1-1 2h-15v2l-8 1 10 1 7 3 19 5 21 10 12 8 14 12 10 11 11 16 8 16 6 16 3 13 3 26v14l-1 3-1 9-6 21-7 16-9 14-8 10-10 11-11 9-10 7-21 11-19 6-18 3h-32l-25-6-15-6-15-8-16-12-18-18-11-16-8-16-7-22-3-14 1 13 3 7-1 3-3-7v252l-4 20-5 16-9 19-12 17-12 13-11 9-10 7-21 11-15 5-13 3h-5l-1 1h-36l-2-1-8-1-20-6-13-6-11-6-16-12-8-7-9-11-10-14-10-19-6-18-3-15v-7l1-2h-2v-19l1-2v-9l4-17 6-17 8-16 9-13 12-14 14-12 19-12 20-8 14-4 12-2-16-4-21-7-16-8-13-9-10-9-13-13-11-16-8-16-6-15-4-19-1-10v-21l3-19 6-20 10-21 12-16 11-12 8-7 14-10 17-9 17-6 11-3 7-1v-2l-8-1-15-4-15-6-15-8-16-12-16-16-10-14-11-21-7-21-3-21v-22l3-19 5-17 7-16 9-15 18-21 14-11 18-11 19-8 15-4zm147 270v100l1 1-1 7-1 3 3-1 9-27 8-16 8-12 9-11 9-9 15-11 13-7 3-3 4-2 7-1v-2l9-1 4-2 3-2 6-1v-1h-29l-21-1zm111 2v2l7-1v-1z" fill="#B05AFE"/>
<path transform="translate(295,105)" d="m0 0h292l21 3 21 7 21 11 12 9 14 13 9 11 10 15 8 17 5 16 3 14v37l-4 20-7 19-9 17-9 12-9 10-8 8-15 11-14 8-14 6-4 1-5 1-1 2h-15v2l-8 1-26 1-12 1h-29l-21-1-59-1-3 1h-152v-2l-8-1-15-4-15-6-15-8-16-12-16-16-10-14-11-21-7-21-3-21v-22l3-19 5-17 7-16 9-15 18-21 14-11 18-11 19-8 15-4z" fill="#FE7560"/>
<path transform="translate(285,106)" d="m0 0h156v271h-154v-2l-8-1-15-4-15-6-15-8-16-12-16-16-10-14-11-21-7-21-3-21v-22l3-19 5-17 7-16 9-15 18-21 14-11 18-11 19-8 15-4z" fill="#FE530C"/>
<path transform="translate(291,647)" d="m0 0 151 1v149l-4 20-5 16-9 19-12 17-12 13-11 9-10 7-21 11-15 5-13 3h-5l-1 1h-36l-2-1-8-1-20-6-13-6-11-6-16-12-8-7-9-11-10-14-10-19-6-18-3-15v-7l1-2h-2v-19l1-2v-9l4-17 6-17 8-16 9-13 12-14 14-12 19-12 20-8 14-4 13-1z" fill="#00CF82"/>
<path transform="translate(563,376)" d="m0 0h24l12 1 7 3 19 5 21 10 12 8 14 12 10 11 11 16 8 16 6 16 3 13 3 26v14l-1 3-1 9-6 21-7 16-9 14-8 10-10 11-11 9-10 7-21 11-19 6-18 3h-32l-25-6-15-6-15-8-16-12-18-18-11-16-8-16-7-22-3-14-1-2v-41l2-1 9-27 8-16 8-12 9-11 10-10 15-11 12-7 4-3 4-2h5v-2l5-1 6-1 5-3 2-1h12z" fill="#01BEFE"/>
<path transform="translate(1462,419)" d="m0 0 14 1 15 5 11 7 10 9 6 8v2l5-5 7-8 12-9 12-6 10-3 15-1 14 2 11 4 12 7 11 11 8 13 5 12 3 15 1 132-1 1h-36v-130l-5-16-6-8-9-7-11-4h-19l-14 7-8 9-4 8-2 12-1 4 1 1-1 124h-35l-1-130-5-12-9-10-12-6-6-2-7 1-11 2-10 5-6 5-7 11-3 9-1 28v100l-4 1-33-1 1-191h35l1 1v11l-1 4 16-14 12-6 7-2z" fill="#030104"/>
<path transform="translate(1220,420)" d="m0 0h28l15 5 11 6 10 8 2 1v-15h37l-1 191-4 16-7 16-9 13-9 10-13 10-19 9-9 3-6 1h-18v2h-4v-2l-10 1-18-5-16-8-1-4 10-17 6-12 4 1 11 5 12 3h16l12-3 11-6 10-9 6-8 5-10 3-12 1-5 1-28-14 11-15 7-11 3-6 1h-18l-17-4-16-8-10-8-11-11-8-13-6-14-3-9-1-9-1-2v-23l5-21 7-16 7-10 9-10 9-8 12-7 15-5zm8 35-13 4-9 6-11 11-7 14-2 10v18l4 16 7 11 9 9 9 5 12 4h19l10-3 9-5 10-9 7-10 4-12 1-7v-19l-5-15-7-11-9-8-16-8-5-1z" fill="#030103"/>
<path transform="translate(1769,419)" d="m0 0 19 1 16 4 17 8 12 9 5 4v-22h37l1 2v187l-1 1h-36l-1-20-14 11-10 6-13 5-14 3h-27l-13-3-16-7-13-9-10-9-11-15-8-16-5-17-1-4v-38l6-21 8-16 7-10 9-10 11-9 15-8 15-5zm0 36-14 4-8 4-10 8-8 8-6 10-5 15-1 8v15l2 13 5 14 9 13 9 8 16 8 13 3h16l12-3 12-6 9-7 9-10 7-14 2-6 1-10v-18l-2-12-3-9-6-11-14-14-8-5-15-5-6-1z" fill="#020103"/>
<path transform="translate(861,331)" d="m0 0h151v36h-115l1 78h88v34l-88 1v135l-1 1h-35z" fill="#020003"/>
<path transform="translate(1060,425)" d="m0 0h36v190l-1 1h-35z" fill="#010002"/>
<path transform="translate(1073,343)" d="m0 0h12l7 3 7 6 3 7v13l-4 8-7 6-10 4-7 1-7-3-8-7-4-8v-12l5-10 7-6z" fill="#040105"/>
<path transform="translate(291,374)" d="m0 0 69 1v1l-73 1v-2z" fill="#FE7661"/>
<path transform="translate(534,381)" d="m0 0 4 1-6 1z" fill="#01BEFE"/>
<path transform="translate(446,466)" d="m0 0 1 2-2 2z" fill="#01BEFE"/>
<path transform="translate(449,561)" d="m0 0" fill="#01BEFE"/>
<path transform="translate(448,559)" d="m0 0" fill="#01BEFE"/>
<path transform="translate(446,552)" d="m0 0" fill="#01BEFE"/>
<path transform="translate(447,464)" d="m0 0" fill="#01BEFE"/>
<path transform="translate(525,385)" d="m0 0 2 1z" fill="#01BEFE"/>
<path transform="translate(279,375)" d="m0 0 2 1z" fill="#FE7560"/>
<path transform="translate(448,462)" d="m0 0" fill="#01BEFE"/>
</svg>
